<?xml version="1.0" standalone="no"?>
<!DOCTYPE svg PUBLIC "-//W3C//DTD SVG 20010904//EN"
 "http://www.w3.org/TR/2001/REC-SVG-20010904/DTD/svg10.dtd">
<svg version="1.0" xmlns="http://www.w3.org/2000/svg"
 width="250.000000pt" height="250.000000pt" viewBox="0 0 250.000000 250.000000"
 preserveAspectRatio="xMidYMid meet">
<metadata>
Created by potrace 1.11, written by Peter Selinger 2001-2013
</metadata>
<g transform="translate(0.000000,250.000000) scale(0.100000,-0.100000)"
fill="#000000" stroke="none">
<path d="M1950 2003 c0 -4 8 -15 18 -26 15 -19 16 -20 0 -14 -61 22 -203 42
-193 28 2 -4 24 -20 49 -36 45 -28 64 -55 29 -40 -60 26 -190 48 -198 35 -3
-4 9 -10 26 -14 55 -11 21 -22 -59 -20 -43 1 -85 -2 -93 -7 -8 -5 -12 -9 -9
-10 3 0 17 -3 33 -5 15 -3 37 -9 50 -14 22 -9 22 -9 -3 -11 -14 -1 -35 -3 -47
-5 -13 -2 -33 -6 -45 -8 -13 -2 -29 -4 -35 -5 -7 0 -13 -5 -13 -10 0 -5 6 -9
13 -8 6 0 26 -1 42 -2 l30 -3 -35 -12 c-19 -8 -39 -11 -45 -8 -5 3 -6 1 -2 -3
4 -5 20 -10 35 -12 84 -10 93 -25 31 -52 -22 -10 -37 -21 -32 -23 11 -5 88 -2
133 5 53 9 73 -9 24 -22 -21 -6 -48 -11 -59 -11 -37 -1 6 -17 58 -22 48 -5 77
-18 39 -18 -24 0 -41 -19 -18 -21 59 -5 106 -4 140 3 21 5 41 7 43 4 3 -2 -14
-21 -37 -42 -47 -42 -70 -77 -45 -68 8 4 15 10 15 15 0 5 5 9 11 9 7 0 5 -10
-5 -25 -22 -33 -20 -39 6 -21 25 18 58 21 58 6 0 -6 -22 -33 -50 -62 -54 -56
-57 -60 -37 -53 60 21 81 9 52 -29 -29 -39 -14 -35 40 9 53 42 75 54 75 38 0
-4 -10 -18 -22 -31 l-23 -25 30 7 c17 4 37 14 45 21 24 21 102 55 130 55 21 1
22 2 8 10 -9 6 -37 8 -62 6 -26 -3 -46 -1 -46 4 0 21 -2 25 -16 41 -9 10 -24
14 -40 11 l-25 -5 26 29 c40 43 49 63 30 70 -8 3 -22 4 -30 0 -20 -7 -19 0 6
40 25 41 19 54 -27 54 -19 0 -33 4 -29 9 10 17 -25 28 -71 23 -34 -3 -44 -1
-44 11 0 22 -41 45 -78 42 -17 -2 -32 1 -32 5 0 11 57 30 91 30 33 0 36 7 12
27 -16 12 -14 13 17 7 19 -3 62 -17 94 -30 66 -27 95 -30 97 -11 3 24 -3 42
-18 60 -21 22 -6 22 43 -2 38 -19 103 -79 121 -114 6 -12 9 12 8 73 l0 90 -65
35 c-77 40 -120 57 -120 48z"/>
<path d="M2291 1905 c2 -54 20 -108 39 -120 7 -4 10 1 8 17 -4 35 14 34 33 -1
9 -17 22 -37 28 -45 7 -8 14 -34 16 -58 1 -24 8 -64 15 -90 15 -58 6 -154 -16
-162 -17 -7 -19 -26 -1 -26 21 -1 56 -34 61 -60 3 -14 10 -41 16 -60 8 -29 8
-25 4 25 -3 33 -10 68 -16 78 -6 11 -6 40 -2 70 4 29 7 55 6 59 -1 4 -4 25 -7
48 -8 66 -123 312 -166 355 -20 20 -20 20 -18 -30z"/>
<path d="M2184 1932 c-6 -4 -16 -22 -22 -41 -31 -90 10 -201 74 -201 l27 0
-26 21 c-29 22 -52 89 -43 125 8 31 18 30 59 -6 46 -40 59 -38 20 3 -16 17
-41 49 -55 69 -13 20 -29 34 -34 30z"/>
<path d="M470 1852 c0 -5 12 -13 28 -20 24 -11 25 -11 2 -6 -65 16 -171 16
-209 1 -21 -9 -41 -14 -43 -11 -3 2 -11 -2 -18 -11 -11 -13 -8 -14 21 -10 l34
5 -33 -12 c-49 -20 -98 -63 -137 -121 -40 -59 -45 -79 -14 -51 26 22 25 21
-23 -72 -33 -65 -78 -204 -78 -243 0 -9 12 2 27 24 34 50 95 117 101 110 3 -2
-3 -16 -12 -31 -28 -42 -14 -37 43 17 50 47 117 89 142 89 7 0 -3 -13 -21 -30
-40 -36 -27 -39 32 -7 34 18 57 22 113 21 134 -3 141 -4 126 -13 -10 -7 -4
-12 22 -21 l35 -13 -29 -40 c-34 -47 -37 -62 -9 -47 20 11 30 -3 10 -15 -5 -3
-10 -19 -10 -34 0 -64 -108 -230 -216 -329 -81 -76 -81 -76 -157 -267 -74
-188 -73 -181 -44 -200 28 -18 114 -30 150 -21 27 6 47 47 40 81 -10 54 -9 74
4 120 21 68 57 138 89 171 28 27 105 78 159 104 17 8 33 19 37 25 4 5 8 6 8 2
0 -4 18 9 40 29 22 21 38 40 35 42 -3 3 -15 -4 -28 -15 -12 -11 -35 -28 -52
-37 -16 -9 -37 -20 -45 -25 -8 -5 -44 -27 -80 -47 -84 -49 -100 -68 -161 -192
-29 -59 -56 -101 -62 -99 -18 6 -13 86 6 127 9 19 28 48 42 64 38 45 20 45
-20 0 -37 -40 -99 -157 -111 -206 -5 -23 -2 -29 22 -40 37 -16 42 -24 36 -53
-5 -28 -29 -40 -48 -24 -11 9 -12 15 -3 26 9 11 8 17 -7 28 -17 12 -20 11 -31
-8 -28 -50 -7 33 29 112 10 24 28 65 38 91 42 108 63 142 101 166 21 13 67 62
101 108 35 47 64 81 66 76 3 -8 -11 -44 -36 -95 -3 -5 7 1 22 15 41 37 76 102
96 178 24 93 45 138 86 189 41 50 32 57 -16 12 -28 -27 -31 -28 -25 -9 5 15 4
20 -4 16 -6 -4 -11 -3 -11 1 0 5 10 14 21 22 18 10 19 15 8 22 -9 5 -10 9 -2
9 12 0 93 72 93 83 0 4 -23 7 -50 7 -36 0 -70 9 -115 30 -44 21 -81 30 -117
31 -52 1 -52 1 -18 10 62 17 67 21 40 29 -42 12 -115 3 -158 -19 -49 -25 -59
-26 -42 -5 33 39 102 67 171 70 38 1 82 -1 98 -6 43 -12 31 9 -24 43 -57 36
-63 47 -22 37 52 -12 80 -27 117 -60 51 -46 101 -78 134 -86 29 -7 29 -6 -15
37 -24 25 -63 66 -86 91 -29 32 -60 53 -98 67 -59 22 -85 26 -85 13z m-157
-1274 c6 -18 -10 -58 -24 -58 -7 0 -9 9 -5 23 3 12 6 28 6 35 0 6 4 12 9 12 5
0 11 -6 14 -12z"/>
<path d="M2030 1798 c0 -31 -23 -38 -80 -26 -103 21 -118 15 -31 -12 25 -8 52
-26 64 -42 l21 -29 16 21 c14 19 30 26 65 30 6 0 3 6 -6 13 -9 7 -23 26 -32
42 l-16 30 -1 -27z"/>
<path d="M1230 1774 c-86 -18 -240 -69 -315 -105 -63 -30 -129 -77 -90 -64 85
29 116 11 84 -50 l-21 -38 49 37 c149 114 214 124 323 51 27 -18 50 -32 50
-31 0 2 -13 19 -30 37 -16 19 -30 42 -30 52 0 19 37 38 66 32 11 -2 29 -4 42
-4 27 -1 30 -21 3 -21 -38 0 -31 -19 11 -30 220 -57 248 -68 275 -106 26 -36
24 -84 -6 -141 -12 -24 -17 -43 -12 -43 6 0 15 9 21 19 5 11 38 33 72 50 35
16 55 30 46 30 -23 1 -48 28 -48 53 0 12 11 36 26 55 26 34 26 35 -31 38 -58
3 -135 17 -141 26 -3 5 3 9 13 10 16 0 16 1 -2 9 -11 5 -40 14 -65 21 -40 10
-43 12 -22 20 12 5 22 11 22 14 0 4 -4 4 -9 1 -5 -3 -29 1 -55 10 -68 23 -58
54 17 54 29 1 30 2 13 12 -28 16 -181 17 -256 2z"/>
<path d="M2087 1710 c9 -9 116 -41 120 -36 2 2 -8 11 -22 20 -25 16 -114 31
-98 16z"/>
<path d="M2110 1670 c0 -6 4 -10 8 -10 5 0 20 -9 33 -21 13 -12 34 -29 47 -40
31 -24 25 -52 -13 -59 -35 -6 -30 -11 50 -48 28 -13 60 -33 72 -44 13 -12 25
-19 29 -16 3 3 -12 21 -34 39 -36 30 -38 35 -31 67 4 19 5 40 3 46 -2 6 -32
27 -67 46 -78 44 -97 52 -97 40z"/>
<path d="M2078 1648 c12 -13 22 -27 22 -30 0 -3 -20 -18 -45 -33 -57 -37 -65
-55 -23 -55 30 0 31 -1 12 -14 -23 -17 -16 -27 23 -31 15 -1 36 -6 46 -10 10
-4 17 -3 17 4 0 6 -6 11 -14 11 -7 0 -19 6 -25 14 -9 10 -8 15 4 19 8 4 14 16
12 29 -1 17 5 25 31 33 l32 11 -22 21 c-13 11 -39 29 -58 38 l-35 18 23 -25z"/>
<path d="M2348 1608 c-2 -16 -9 -22 -20 -20 -10 2 -18 0 -18 -3 0 -12 46 -50
57 -47 13 3 16 -15 14 -68 0 -23 1 -22 14 7 14 30 13 37 -6 88 -23 62 -36 76
-41 43z"/>
<path d="M1062 1573 c-32 -15 -44 -35 -19 -32 6 1 26 1 42 0 26 -1 19 -7 -50
-40 -94 -45 -161 -101 -193 -162 l-24 -44 37 42 c37 43 137 105 188 117 40 9
33 -5 -19 -39 -65 -43 -148 -152 -244 -320 -26 -46 -51 -76 -31 -37 6 12 9 22
6 22 -9 0 -54 -53 -60 -72 -3 -9 -21 -22 -39 -28 -31 -10 -34 -15 -66 -122
-47 -162 -48 -177 -13 -215 28 -30 34 -31 79 -26 27 3 55 5 62 6 13 0 13 0 16
38 4 39 -11 69 -34 69 -32 0 -34 25 -10 91 30 80 66 113 206 189 65 36 132 79
149 95 40 40 115 129 138 165 18 28 18 29 -4 40 -33 18 -119 19 -164 2 -50
-20 -103 -69 -151 -138 -50 -73 -56 -60 -9 18 74 122 149 169 262 164 71 -3
203 -57 163 -66 -23 -5 -23 -6 6 -19 16 -7 40 -15 54 -18 14 -2 30 -9 35 -15
7 -7 7 -9 0 -5 -6 3 -17 2 -25 -4 -18 -10 -17 -11 81 -13 48 -1 72 -6 86 -18
28 -25 95 -47 166 -53 134 -11 170 -15 175 -20 10 -10 -22 -34 -51 -39 -38 -7
-49 -17 -81 -76 -21 -39 -25 -54 -16 -69 9 -18 19 -20 78 -17 71 4 114 20 145
54 15 16 27 19 72 15 32 -3 62 0 77 8 31 16 170 122 186 142 39 47 12 99 -68
128 -75 27 -87 40 -65 72 41 63 118 52 146 -21 22 -56 71 -87 141 -88 60 0 75
10 35 25 -13 5 -28 24 -36 47 -8 22 -22 51 -33 67 -11 15 -21 42 -23 60 -2 17
-8 43 -14 57 -11 26 -45 70 -55 70 -3 0 -2 -10 3 -22 4 -13 6 -29 4 -36 -3 -7
7 -24 22 -37 14 -14 24 -29 20 -34 -3 -5 6 -26 20 -46 33 -49 42 -102 22 -122
-14 -14 -18 -14 -42 5 -15 12 -38 44 -52 71 -23 47 -83 106 -83 82 0 -6 -15
-17 -33 -25 -19 -7 -48 -31 -65 -51 -27 -33 -30 -35 -26 -14 5 23 5 23 -10 5
-9 -11 -16 -25 -16 -32 0 -7 -5 -16 -12 -20 -8 -5 -9 4 -4 34 l6 42 -40 -44
c-41 -44 -80 -65 -80 -42 0 7 11 23 25 36 31 29 25 37 -11 14 -40 -27 -141
-25 -177 3 l-27 21 -64 -22 c-78 -26 -92 -37 -40 -31 89 11 153 5 216 -19 35
-14 83 -27 107 -29 82 -7 116 -70 65 -118 -14 -13 -47 -53 -72 -89 -54 -76
-55 -76 -107 -92 -53 -16 -75 -17 -102 -7 -32 12 -28 28 9 41 31 11 31 11 9
20 -20 7 -22 10 -10 26 20 25 39 36 83 47 31 8 41 16 47 37 4 16 4 30 0 33 -5
2 -55 7 -112 11 -119 8 -127 8 -133 15 -3 2 20 4 50 3 61 -1 224 26 224 38 0
4 -17 6 -37 4 -153 -17 -172 -17 -192 -7 -29 16 -26 37 7 55 l27 15 -37 1
c-65 0 -124 -33 -112 -64 3 -9 9 -16 13 -16 4 0 16 -7 27 -15 17 -13 16 -14
-16 -2 -47 16 -84 43 -76 56 4 5 2 12 -4 16 -17 11 -11 35 9 35 26 0 66 34 81
69 14 36 8 69 -20 102 -14 16 -18 18 -14 6 11 -32 -4 -65 -37 -76 -73 -25
-136 -2 -225 83 -111 108 -172 133 -242 99z m4 -318 c11 -28 -51 -102 -131
-155 l-50 -33 25 28 c14 16 31 35 38 43 18 19 10 47 -11 46 -30 -3 3 37 53 63
50 27 68 29 76 8z m1099 -44 c3 -5 1 -12 -5 -16 -5 -3 -10 1 -10 9 0 18 6 21
15 7z m-67 -63 c-3 -7 -15 -15 -28 -16 -21 -3 -22 -2 -11 12 16 19 44 21 39 4z
m-1288 -58 c-6 -11 -13 -20 -16 -20 -2 0 0 9 6 20 6 11 13 20 16 20 2 0 0 -9
-6 -20z m-40 -68 c0 -4 -5 -13 -12 -20 -18 -18 -28 -15 -28 8 0 13 7 20 20 20
11 0 20 -4 20 -8z m-110 -387 c-7 -9 -15 -13 -18 -10 -3 2 1 11 8 20 7 9 15
13 18 10 3 -2 -1 -11 -8 -20z"/>
<path d="M1433 1573 c-7 -3 -13 -13 -13 -23 0 -13 -6 -18 -20 -15 -25 5 -34
-9 -15 -25 8 -7 15 -19 15 -26 0 -12 -6 -12 -32 2 -18 9 -44 26 -58 38 -20 17
-19 14 5 -14 17 -19 31 -36 32 -38 1 -2 18 -10 39 -17 40 -13 74 -3 74 22 0 6
10 15 22 19 21 6 21 7 2 21 -16 11 -16 15 -5 23 14 8 41 1 82 -20 33 -18 21
-3 -17 20 -38 24 -91 39 -111 33z"/>
<path d="M741 1410 c-76 -64 -97 -102 -117 -215 -13 -77 -38 -130 -85 -177
-26 -26 -46 -48 -43 -48 3 0 31 17 62 39 31 21 71 45 87 54 37 19 109 86 118
109 6 16 4 16 -28 1 -19 -9 -38 -13 -42 -9 -15 14 -5 102 16 148 11 25 39 68
61 97 22 28 38 51 36 51 -3 0 -32 -23 -65 -50z"/>
<path d="M1920 1209 c0 -5 5 -7 10 -4 6 3 10 8 10 11 0 2 -4 4 -10 4 -5 0 -10
-5 -10 -11z"/>
</g>
</svg>
